<?xml version="1.0" encoding="UTF-8" standalone="no"?>
<!-- Created with Inkscape (http://www.inkscape.org/) -->

<svg
   width="180"
   height="180"
   viewBox="0 0 180 180"
   version="1.1"
   id="svg5"
   inkscape:version="1.1.2 (0a00cf5339, 2022-02-04)"
   sodipodi:docname="hangmam_icon.svg"
   xmlns:inkscape="http://www.inkscape.org/namespaces/inkscape"
   xmlns:sodipodi="http://sodipodi.sourceforge.net/DTD/sodipodi-0.dtd"
   xmlns="http://www.w3.org/2000/svg"
   xmlns:svg="http://www.w3.org/2000/svg">
  <sodipodi:namedview
     id="namedview7"
     pagecolor="#ffffff"
     bordercolor="#999999"
     borderopacity="1"
     inkscape:pageshadow="0"
     inkscape:pageopacity="0"
     inkscape:pagecheckerboard="0"
     inkscape:document-units="px"
     showgrid="false"
     inkscape:zoom="1.0861946"
     inkscape:cx="0.92064534"
     inkscape:cy="135.33487"
     inkscape:window-width="1366"
     inkscape:window-height="739"
     inkscape:window-x="0"
     inkscape:window-y="0"
     inkscape:window-maximized="1"
     inkscape:current-layer="layer1"
     showguides="false" />
  <defs
     id="defs2" />
  <g
     inkscape:label="Camada 1"
     inkscape:groupmode="layer"
     id="layer1">
    <rect
       style="fill:#ffffff;stroke:#666666;stroke-width:3;stroke-miterlimit:4;stroke-dasharray:none"
       id="rect97"
       width="169.8846"
       height="169.8846"
       x="5.0577011"
       y="5.0577011"
       inkscape:export-filename="/home/jonasjf/Documentos/hangmam/src/img/hang6.png"
       inkscape:export-xdpi="96"
       inkscape:export-ydpi="96"
       ry="51.28112" />
    <g
       id="g1228"
       transform="matrix(0.80366909,0,0,0.80366909,23.24144,19.956205)">
      <g
         id="g45276"
         inkscape:export-filename="/home/jonasjf/Documentos/hangmam/src/img/hang6.png"
         inkscape:export-xdpi="96"
         inkscape:export-ydpi="96">
        <path
           style="fill:#e9c6af;fill-opacity:1;stroke:#1a1a1a;stroke-width:1px;stroke-linecap:butt;stroke-linejoin:miter;stroke-opacity:1"
           d="m 120.86288,132.60204 c 0.25612,0.62879 0.12115,1.30664 -0.0422,1.98805 -1.06573,1.69593 -2.7644,3.01245 -4.24944,4.45702 -2.09551,1.97271 0.98634,3.10356 5.22743,1.48369 1.68173,-0.89275 1.44544,-3.61812 3.04812,-4.66917 1.30922,-0.52851 0.27571,-2.50117 0.0224,-3.99288 z"
           id="path42373"
           sodipodi:nodetypes="ccccccc"
           inkscape:export-filename="/home/jonasjf/Documentos/hangmam/src/img/hang5.png"
           inkscape:export-xdpi="96"
           inkscape:export-ydpi="96" />
        <path
           id="rect39772"
           style="fill:#1a1a1a;stroke:#1a1a1a;stroke-width:0.873712;stroke-linecap:round"
           d="m 122.97445,102.66203 4.81657,0.32409 c 0.93352,0.0628 1.77825,0.8859 1.57167,1.79844 -1.87037,8.26219 -3.01752,17.28861 -1.80642,26.84652 0.11762,0.92821 -1.16955,1.70771 -2.10367,1.65475 l -4.64241,-0.26322 c -0.93414,-0.053 -1.50342,-1.00887 -1.4406,-1.94239 1.02076,-9.72204 1.13966,-19.48333 1.38776,-29.2452 0.0238,-0.93534 1.28357,0.7642 2.2171,0.82701 z"
           sodipodi:nodetypes="ssssssccs"
           inkscape:export-filename="/home/jonasjf/Documentos/hangmam/src/img/hang5.png"
           inkscape:export-xdpi="96"
           inkscape:export-ydpi="96" />
      </g>
      <rect
         style="fill:#502d16;fill-rule:evenodd;stroke:#28170b;stroke-width:0.763222"
         id="rect223"
         width="10.513221"
         height="88.407326"
         x="155.0605"
         y="-107.99313"
         transform="rotate(90)"
         inkscape:export-filename="/home/jonasjf/Documentos/hangmam/src/img/hang6.png"
         inkscape:export-xdpi="96"
         inkscape:export-ydpi="96" />
      <rect
         style="fill:#502d16;fill-rule:evenodd;stroke:#28170b;stroke-width:1.01858"
         id="rect51"
         width="10.513221"
         height="157.46042"
         x="54.451515"
         y="8.4248104"
         inkscape:export-filename="/home/jonasjf/Documentos/hangmam/src/img/hang6.png"
         inkscape:export-xdpi="96"
         inkscape:export-ydpi="96" />
      <rect
         style="fill:#502d16;fill-rule:evenodd;stroke:#28170b;stroke-width:0.788103"
         id="rect203"
         width="10.475662"
         height="94.60363"
         x="14.133549"
         y="-139.92757"
         transform="rotate(90)"
         inkscape:export-filename="/home/jonasjf/Documentos/hangmam/src/img/hang6.png"
         inkscape:export-xdpi="96"
         inkscape:export-ydpi="96" />
      <rect
         style="fill:#28170b;fill-rule:evenodd;stroke-width:0.457688"
         id="rect225"
         width="7.2177477"
         height="46.308407"
         x="123.95627"
         y="53.72401"
         transform="matrix(0.74833398,0.66332214,-0.65584925,0.75489188,0,0)"
         inkscape:export-filename="/home/jonasjf/Documentos/hangmam/src/img/hang6.png"
         inkscape:export-xdpi="96"
         inkscape:export-ydpi="96" />
      <rect
         style="fill:#28170b;fill-rule:evenodd;stroke-width:0.390902"
         id="rect227"
         width="6.1853714"
         height="39.417759"
         x="43.554108"
         y="140.06673"
         transform="matrix(-0.76514679,0.64385588,0.67512666,0.73770184,0,0)"
         inkscape:transform-center-x="18.729186"
         inkscape:transform-center-y="-1.2928003"
         inkscape:export-filename="/home/jonasjf/Documentos/hangmam/src/img/hang6.png"
         inkscape:export-xdpi="96"
         inkscape:export-ydpi="96" />
      <rect
         style="fill:#28170b;fill-rule:evenodd;stroke-width:0.455388"
         id="rect229"
         width="7.1861506"
         height="46.045677"
         x="73.987129"
         y="-46.522739"
         transform="rotate(41.268719)"
         inkscape:export-filename="/home/jonasjf/Documentos/hangmam/src/img/hang6.png"
         inkscape:export-xdpi="96"
         inkscape:export-ydpi="96" />
      <rect
         style="fill:#1a1a1a;stroke:#554400;stroke-width:1.14742"
         id="rect650"
         width="3.9041197"
         height="36.138973"
         x="126.56301"
         y="13.731708"
         ry="2.5638394"
         inkscape:export-filename="/home/jonasjf/Documentos/hangmam/src/img/hang6.png"
         inkscape:export-xdpi="96"
         inkscape:export-ydpi="96" />
      <g
         id="g39668"
         transform="matrix(-0.99892006,0.04646204,0.04646204,0.99892006,252.04702,-7.1933622)"
         inkscape:export-filename="/home/jonasjf/Documentos/hangmam/src/img/hang6.png"
         inkscape:export-xdpi="96"
         inkscape:export-ydpi="96">
        <rect
           style="fill:#e9c6af;fill-opacity:1;stroke:#1a1a1a;stroke-width:1.00001;stroke-linecap:round;stroke-linejoin:miter;stroke-miterlimit:4;stroke-dasharray:none;stroke-opacity:1;paint-order:normal"
           id="rect39662"
           width="4.3842654"
           height="17.88862"
           x="110.45108"
           y="92.220741"
           ry="2.6355674"
           transform="matrix(0.99966977,-0.02569737,0.0306844,0.99952912,0,0)"
           inkscape:export-filename="/home/jonasjf/Documentos/hangmam/src/img/hang3.png"
           inkscape:export-xdpi="96"
           inkscape:export-ydpi="96" />
        <path
           id="path39664"
           style="fill:#2a7fff;stroke:#1a1a1a;stroke-linecap:round"
           transform="rotate(19.562965)"
           d="m 140.09272,31.734074 c 1.68118,0 3.0528,1.353538 3.03462,3.034618 l -0.14826,13.709484 c -1.70073,0.199638 -3.54901,0.307894 -6.06923,0 l 0.14826,-13.709484 c 0.0182,-1.68108 1.35344,-3.034618 3.03461,-3.034618 z"
           sodipodi:nodetypes="ssccss"
           inkscape:export-filename="/home/jonasjf/Documentos/hangmam/src/img/hang3.png"
           inkscape:export-xdpi="96"
           inkscape:export-ydpi="96" />
        <path
           id="path39666"
           style="fill:#e9c6af;stroke:#1a1a1a;stroke-linecap:round"
           d="m 119.06183,106.54823 c 1.55313,1.126 -0.33532,2.39028 -0.59667,4.16416 -0.13644,0.92608 -2.82716,0.96009 -3.60162,0.90292 -1.64503,-0.12144 -2.08803,-1.95186 -2.08803,-3.76216 0,-1.8103 1.33731,-3.29807 2.9867,-3.27783 1.64875,0.0202 2.46447,1.36743 3.29962,1.97291 z"
           sodipodi:nodetypes="ssssss"
           inkscape:export-filename="/home/jonasjf/Documentos/hangmam/src/img/hang3.png"
           inkscape:export-xdpi="96"
           inkscape:export-ydpi="96" />
      </g>
      <path
         id="path11260"
         style="fill:#2a7fff;stroke:#1a1a1a;stroke-width:1;stroke-linecap:round;stroke-miterlimit:4;stroke-dasharray:none"
         d="m 138.14391,90.38527 c -0.51927,5.605855 -1.63174,10.71357 -3.56007,14.19858 -1.60679,2.9039 -3.1306,4.68114 -5.99912,4.68114 -2.13166,0 -4.79273,-1.66631 -6.40186,-4.41882 -2.02496,-3.46379 -3.41252,-8.647687 -3.59973,-14.395587 -0.15809,-4.853781 -1.68606,-9.201097 -0.43069,-12.148078 2.04895,-4.809807 6.22395,-6.010624 10.23829,-5.898559 4.89643,0.13669 7.35098,0.274889 9.1504,4.207951 1.40919,3.080101 1.08692,8.546777 0.60278,13.773373 z"
         sodipodi:nodetypes="sssssssss"
         inkscape:export-filename="/home/jonasjf/Documentos/hangmam/src/img/hang6.png"
         inkscape:export-xdpi="96"
         inkscape:export-ydpi="96" />
      <ellipse
         style="fill:#e9c6af;fill-opacity:1;stroke:#1a1a1a;stroke-width:1;stroke-linecap:round;stroke-linejoin:miter;stroke-miterlimit:4;stroke-dasharray:none;paint-order:normal"
         id="path11369"
         cx="128.2119"
         cy="75.036758"
         rx="4.0637455"
         ry="4.3516021"
         inkscape:export-filename="/home/jonasjf/Documentos/hangmam/src/img/hang6.png"
         inkscape:export-xdpi="96"
         inkscape:export-ydpi="96" />
      <path
         id="ellipse604"
         style="fill:#e9c6af;stroke:#1a1a1a;stroke-width:1;stroke-miterlimit:4;stroke-dasharray:none"
         d="m 138.39953,61.778862 c -0.83314,6.863041 -4.13239,13.873607 -9.88445,13.87361 -2.86553,10e-7 -4.89919,-1.532918 -6.78228,-4.013461 -1.8969,-2.498727 -3.63275,-5.959022 -3.63275,-9.782619 0,-7.619368 4.66297,-13.796083 10.41503,-13.79608 5.75206,3e-6 10.75497,6.547616 9.88445,13.71855 z"
         sodipodi:nodetypes="ssssss"
         inkscape:export-filename="/home/jonasjf/Documentos/hangmam/src/img/hang6.png"
         inkscape:export-xdpi="96"
         inkscape:export-ydpi="96" />
      <g
         id="g626"
         transform="translate(-2.460991)"
         style="fill:#1a1a1a;stroke:#554400"
         inkscape:export-filename="/home/jonasjf/Documentos/hangmam/src/img/hang6.png"
         inkscape:export-xdpi="96"
         inkscape:export-ydpi="96">
        <rect
           style="fill:#1a1a1a;stroke:#554400;stroke-width:1.51957"
           id="rect261"
           width="4.4122505"
           height="20.128428"
           x="127.02294"
           y="-39.222866"
           ry="2.7910821"
           transform="rotate(21.350372)" />
        <rect
           style="fill:#1a1a1a;stroke:#554400;stroke-width:1.51957"
           id="rect602"
           width="4.4122505"
           height="20.128428"
           x="-116.95181"
           y="56.146099"
           ry="2.7910821"
           transform="matrix(-0.93137151,0.36407019,0.36407019,0.93137151,0,0)" />
      </g>
      <ellipse
         style="fill:#28170b;stroke:#28170b"
         id="path1133"
         cx="59.073124"
         cy="160.57587"
         rx="1.9562818"
         ry="1.6933414"
         inkscape:export-filename="/home/jonasjf/Documentos/hangmam/src/img/hang6.png"
         inkscape:export-xdpi="96"
         inkscape:export-ydpi="96" />
      <ellipse
         style="fill:#502d16;stroke:#28170b"
         id="ellipse1259"
         cx="60.57272"
         cy="135.82507"
         rx="1.9562818"
         ry="1.6933414"
         inkscape:export-filename="/home/jonasjf/Documentos/hangmam/src/img/hang6.png"
         inkscape:export-xdpi="96"
         inkscape:export-ydpi="96" />
      <ellipse
         style="fill:#502d16;stroke:#28170b"
         id="ellipse1279"
         cx="83.496284"
         cy="160.02994"
         rx="1.9562818"
         ry="1.6933414"
         inkscape:export-filename="/home/jonasjf/Documentos/hangmam/src/img/hang6.png"
         inkscape:export-xdpi="96"
         inkscape:export-ydpi="96" />
      <ellipse
         style="fill:#502d16;stroke:#28170b"
         id="ellipse1281"
         cx="32.532288"
         cy="157.05505"
         rx="1.9562818"
         ry="1.6933414"
         inkscape:export-filename="/home/jonasjf/Documentos/hangmam/src/img/hang6.png"
         inkscape:export-xdpi="96"
         inkscape:export-ydpi="96" />
      <ellipse
         style="fill:#502d16;stroke:#28170b"
         id="ellipse1283"
         cx="57.718269"
         cy="128.25449"
         rx="1.9562818"
         ry="1.6933414"
         inkscape:export-filename="/home/jonasjf/Documentos/hangmam/src/img/hang6.png"
         inkscape:export-xdpi="96"
         inkscape:export-ydpi="96" />
      <ellipse
         style="fill:#502d16;stroke:#28170b"
         id="ellipse1285"
         cx="60.761417"
         cy="47.900997"
         rx="1.9562818"
         ry="1.6933414"
         inkscape:export-filename="/home/jonasjf/Documentos/hangmam/src/img/hang6.png"
         inkscape:export-xdpi="96"
         inkscape:export-ydpi="96" />
      <ellipse
         style="fill:#502d16;stroke:#28170b"
         id="ellipse1287"
         cx="86.023201"
         cy="19.557787"
         rx="1.9562818"
         ry="1.6933414"
         inkscape:export-filename="/home/jonasjf/Documentos/hangmam/src/img/hang6.png"
         inkscape:export-xdpi="96"
         inkscape:export-ydpi="96" />
      <ellipse
         style="fill:#28170b;stroke:#28170b"
         id="ellipse1289"
         cx="59.886353"
         cy="19.068283"
         rx="1.9562818"
         ry="1.6933414"
         inkscape:export-filename="/home/jonasjf/Documentos/hangmam/src/img/hang6.png"
         inkscape:export-xdpi="96"
         inkscape:export-ydpi="96" />
      <path
         style="fill:#aad400;stroke:#1a1a1a;stroke-width:1px;stroke-linecap:square;stroke-linejoin:miter;stroke-opacity:1;paint-order:normal"
         d="m 118.35864,63.772906 c -0.35352,-5.434976 4.48519,-0.28242 4.06141,-1.454642 -0.69515,-1.922852 0.47043,-6.496029 5.47773,-7.713754 2.22847,-0.54194 6.57676,0.506737 9.88033,2.195118 l 6.55295,3.889925 c -2.20969,-3.572345 -3.10706,-6.989269 -5.41186,-9.538887 l 6.17183,-1.591672 -7.39188,-2.271178 0.91866,-3.97405 -5.71742,1.676852 1.05114,-4.420809 -6.10485,3.534115 -3.83646,-2.529434 -1.05212,4.844182 -5.45468,-0.736933 0.79177,4.050554 -6.29212,2.377149 3.35319,4.10665 -2.23228,5.310762 3.05548,3.602108 0.79308,7.28406 2.99042,-4.578821 c -0.89427,-1.274564 -1.59492,-2.591785 -1.60432,-4.061295 z"
         id="path2653"
         sodipodi:nodetypes="csscccccccccccccccccccc"
         inkscape:export-filename="/home/jonasjf/Documentos/hangmam/src/img/hang6.png"
         inkscape:export-xdpi="96"
         inkscape:export-ydpi="96" />
      <path
         style="fill:none;stroke:#1a1a1a;stroke-width:1px;stroke-linecap:butt;stroke-linejoin:miter;stroke-opacity:1"
         d="m 133.36515,63.237238 c -0.31393,1.177445 0.56179,2.793854 0.99515,4.247038 -0.59671,0.429364 -1.35956,0.73745 -2.33653,0.889232"
         id="path4937"
         sodipodi:nodetypes="ccc"
         inkscape:export-filename="/home/jonasjf/Documentos/hangmam/src/img/hang6.png"
         inkscape:export-xdpi="96"
         inkscape:export-ydpi="96" />
      <path
         style="fill:none;stroke:#1a1a1a;stroke-width:1px;stroke-linecap:butt;stroke-linejoin:miter;stroke-opacity:1"
         d="m 127.02676,69.722839 c 1.92362,7.71e-4 3.10885,0.905726 4.33549,1.759986"
         id="path4939"
         sodipodi:nodetypes="cc"
         inkscape:export-filename="/home/jonasjf/Documentos/hangmam/src/img/hang6.png"
         inkscape:export-xdpi="96"
         inkscape:export-ydpi="96" />
      <path
         style="fill:none;stroke:#1a1a1a;stroke-width:1px;stroke-linecap:butt;stroke-linejoin:miter;stroke-opacity:1"
         d="m 121.55743,64.277133 c -1.52666,-1.648993 -1.88419,0.09601 -0.24458,2.33233"
         id="path6063"
         sodipodi:nodetypes="cc"
         inkscape:export-filename="/home/jonasjf/Documentos/hangmam/src/img/hang6.png"
         inkscape:export-xdpi="96"
         inkscape:export-ydpi="96" />
      <path
         style="fill:none;stroke:#1a1a1a;stroke-width:1px;stroke-linecap:round;stroke-linejoin:miter;stroke-opacity:1"
         d="m 135.11435,61.663203 c 0.82718,0.60544 1.79384,-0.987524 2.75026,-0.940678"
         id="path9729"
         sodipodi:nodetypes="cc"
         inkscape:export-filename="/home/jonasjf/Documentos/hangmam/src/img/hang6.png"
         inkscape:export-xdpi="96"
         inkscape:export-ydpi="96" />
      <path
         style="fill:none;stroke:#1a1a1a;stroke-width:1px;stroke-linecap:round;stroke-linejoin:miter;stroke-opacity:1"
         d="m 132.14757,61.533715 c -1.45363,0.338533 -1.63405,-1.605535 -4.66891,-1.125008"
         id="path9844"
         sodipodi:nodetypes="cc"
         inkscape:export-filename="/home/jonasjf/Documentos/hangmam/src/img/hang6.png"
         inkscape:export-xdpi="96"
         inkscape:export-ydpi="96" />
      <path
         style="fill:#2a5fff;fill-opacity:1;stroke:none;stroke-width:1px;stroke-linecap:butt;stroke-linejoin:miter;stroke-opacity:1"
         d="m 118.60063,78.41979 c 1.97864,-2.152898 5.11921,0.494475 4.51173,3.665453 -1.164,5.929102 -3.06248,7.490107 -4.17571,6.124117 -0.318,-2.430087 -1.27285,-6.816467 -0.33599,-9.78957 z"
         id="path14964"
         sodipodi:nodetypes="ccccc"
         inkscape:export-filename="/home/jonasjf/Documentos/hangmam/src/img/hang6.png"
         inkscape:export-xdpi="96"
         inkscape:export-ydpi="96" />
      <path
         id="path18772"
         style="fill:#1a1a1a;stroke:#1a1a1a;stroke-width:1;stroke-linecap:round;stroke-miterlimit:4;stroke-dasharray:none"
         d="m 135.94007,101.34161 c -1.2255,3.04722 -4.48683,7.92338 -7.35535,7.92338 -2.13166,0 -6.65078,-5.03953 -7.8646,-7.90241 z"
         sodipodi:nodetypes="cscc"
         inkscape:export-filename="/home/jonasjf/Documentos/hangmam/src/img/hang6.png"
         inkscape:export-xdpi="96"
         inkscape:export-ydpi="96" />
      <path
         style="fill:#1a1a1a;stroke:#1a1a1a;stroke-width:1px;stroke-linecap:butt;stroke-linejoin:miter;stroke-opacity:1"
         d="m 128.43417,79.298305 0.64307,25.101885"
         id="path20029"
         sodipodi:nodetypes="cc"
         inkscape:export-filename="/home/jonasjf/Documentos/hangmam/src/img/hang6.png"
         inkscape:export-xdpi="96"
         inkscape:export-ydpi="96" />
      <rect
         style="fill:#2a42ff;fill-opacity:1;stroke:none;stroke-width:1;stroke-linecap:round;stroke-linejoin:miter;stroke-miterlimit:4;stroke-dasharray:none;stroke-opacity:1;paint-order:normal"
         id="rect20952"
         width="5.4599247"
         height="5.5265889"
         x="130.62578"
         y="83.510361"
         ry="1.1133256"
         inkscape:export-filename="/home/jonasjf/Documentos/hangmam/src/img/hang6.png"
         inkscape:export-xdpi="96"
         inkscape:export-ydpi="96" />
      <ellipse
         style="fill:#1a1a1a;fill-opacity:1;stroke:none;stroke-width:1.47384;stroke-linecap:round;stroke-linejoin:miter;stroke-miterlimit:4;stroke-dasharray:none;paint-order:normal"
         id="path21188"
         cx="126.98876"
         cy="81.851891"
         rx="0.63087767"
         ry="0.62404674"
         inkscape:export-filename="/home/jonasjf/Documentos/hangmam/src/img/hang6.png"
         inkscape:export-xdpi="96"
         inkscape:export-ydpi="96" />
      <rect
         style="fill:#1a1a1a;fill-opacity:1;stroke:none;stroke-width:0.702286;stroke-linecap:round;stroke-linejoin:miter;stroke-miterlimit:4;stroke-dasharray:none;stroke-opacity:1;paint-order:normal"
         id="rect28303"
         width="5.4599247"
         height="2.7257445"
         x="130.63344"
         y="82.400497"
         ry="0.54909837"
         inkscape:export-filename="/home/jonasjf/Documentos/hangmam/src/img/hang6.png"
         inkscape:export-xdpi="96"
         inkscape:export-ydpi="96" />
      <ellipse
         style="fill:#2a7fff;fill-opacity:1;stroke:none;stroke-width:1.44293;stroke-linecap:round;stroke-linejoin:miter;stroke-miterlimit:4;stroke-dasharray:none;paint-order:normal"
         id="ellipse28721"
         cx="133.37462"
         cy="83.93618"
         rx="0.63166744"
         ry="0.59739387"
         inkscape:export-filename="/home/jonasjf/Documentos/hangmam/src/img/hang6.png"
         inkscape:export-xdpi="96"
         inkscape:export-ydpi="96" />
      <ellipse
         style="fill:#1a1a1a;fill-opacity:1;stroke:none;stroke-width:1.47384;stroke-linecap:round;stroke-linejoin:miter;stroke-miterlimit:4;stroke-dasharray:none;paint-order:normal"
         id="ellipse28803"
         cx="127.14537"
         cy="87.360153"
         rx="0.63087767"
         ry="0.62404674"
         inkscape:export-filename="/home/jonasjf/Documentos/hangmam/src/img/hang6.png"
         inkscape:export-xdpi="96"
         inkscape:export-ydpi="96" />
      <ellipse
         style="fill:#1a1a1a;fill-opacity:1;stroke:none;stroke-width:1.47384;stroke-linecap:round;stroke-linejoin:miter;stroke-miterlimit:4;stroke-dasharray:none;paint-order:normal"
         id="ellipse28885"
         cx="127.14542"
         cy="92.615295"
         rx="0.63087767"
         ry="0.62404674"
         inkscape:export-filename="/home/jonasjf/Documentos/hangmam/src/img/hang6.png"
         inkscape:export-xdpi="96"
         inkscape:export-ydpi="96" />
      <ellipse
         style="fill:#1a1a1a;fill-opacity:1;stroke:none;stroke-width:1.47384;stroke-linecap:round;stroke-linejoin:miter;stroke-miterlimit:4;stroke-dasharray:none;paint-order:normal"
         id="ellipse28967"
         cx="127.35386"
         cy="97.963898"
         rx="0.63087767"
         ry="0.62404674"
         inkscape:export-filename="/home/jonasjf/Documentos/hangmam/src/img/hang6.png"
         inkscape:export-xdpi="96"
         inkscape:export-ydpi="96" />
      <g
         id="g39660"
         inkscape:export-filename="/home/jonasjf/Documentos/hangmam/src/img/hang6.png"
         inkscape:export-xdpi="96"
         inkscape:export-ydpi="96">
        <rect
           style="fill:#e9c6af;fill-opacity:1;stroke:#1a1a1a;stroke-width:1.00001;stroke-linecap:round;stroke-linejoin:miter;stroke-miterlimit:4;stroke-dasharray:none;stroke-opacity:1;paint-order:normal"
           id="rect32964"
           width="4.3842654"
           height="17.88862"
           x="110.45108"
           y="92.220741"
           ry="2.6355674"
           transform="matrix(0.99966977,-0.02569737,0.0306844,0.99952912,0,0)"
           inkscape:export-filename="/home/jonasjf/Documentos/hangmam/src/img/hang3.png"
           inkscape:export-xdpi="96"
           inkscape:export-ydpi="96" />
        <path
           id="rect32095"
           style="fill:#2a7fff;stroke:#1a1a1a;stroke-linecap:round"
           transform="rotate(19.562965)"
           d="m 140.09272,31.734074 c 1.68118,0 3.0528,1.353538 3.03462,3.034618 l -0.14826,13.709484 c -1.70073,0.199638 -3.54901,0.307894 -6.06923,0 l 0.14826,-13.709484 c 0.0182,-1.68108 1.35344,-3.034618 3.03461,-3.034618 z"
           sodipodi:nodetypes="ssccss"
           inkscape:export-filename="/home/jonasjf/Documentos/hangmam/src/img/hang3.png"
           inkscape:export-xdpi="96"
           inkscape:export-ydpi="96" />
        <path
           id="path38060"
           style="fill:#e9c6af;stroke:#1a1a1a;stroke-linecap:round"
           d="m 119.06183,106.54823 c 1.55313,1.126 -0.33532,2.39028 -0.59667,4.16416 -0.13644,0.92608 -2.82716,0.96009 -3.60162,0.90292 -1.64503,-0.12144 -2.08803,-1.95186 -2.08803,-3.76216 0,-1.8103 1.33731,-3.29807 2.9867,-3.27783 1.64875,0.0202 2.46447,1.36743 3.29962,1.97291 z"
           sodipodi:nodetypes="ssssss"
           inkscape:export-filename="/home/jonasjf/Documentos/hangmam/src/img/hang3.png"
           inkscape:export-xdpi="96"
           inkscape:export-ydpi="96" />
      </g>
      <rect
         style="fill:#280b0b;fill-opacity:1;stroke:#280b0b;stroke-width:1.14447;stroke-linecap:round;stroke-linejoin:miter;stroke-miterlimit:4;stroke-dasharray:none;stroke-opacity:1;paint-order:normal"
         id="rect39034"
         width="5.7215672"
         height="2.1871603"
         x="112.95745"
         y="101.99632"
         ry="0.2120828"
         inkscape:export-filename="/home/jonasjf/Documentos/hangmam/src/img/hang6.png"
         inkscape:export-xdpi="96"
         inkscape:export-ydpi="96" />
      <ellipse
         style="fill:#ffffff;fill-opacity:1;stroke:none;stroke-width:1.39933;stroke-linecap:round;stroke-linejoin:miter;stroke-miterlimit:4;stroke-dasharray:none;stroke-opacity:1;paint-order:normal"
         id="path39379"
         cx="115.83958"
         cy="103.06438"
         rx="1.7494794"
         ry="1.6522542"
         inkscape:export-filename="/home/jonasjf/Documentos/hangmam/src/img/hang6.png"
         inkscape:export-xdpi="96"
         inkscape:export-ydpi="96" />
      <g
         id="g45282"
         transform="matrix(-0.9997661,0.02162722,0.02162722,0.9997661,254.57061,-2.6233711)"
         inkscape:export-filename="/home/jonasjf/Documentos/hangmam/src/img/hang6.png"
         inkscape:export-xdpi="96"
         inkscape:export-ydpi="96">
        <path
           style="fill:#e9c6af;fill-opacity:1;stroke:#1a1a1a;stroke-width:1px;stroke-linecap:butt;stroke-linejoin:miter;stroke-opacity:1"
           d="m 120.86288,132.60204 c 0.25612,0.62879 0.12115,1.30664 -0.0422,1.98805 -1.06573,1.69593 -2.7644,3.01245 -4.24944,4.45702 -2.09551,1.97271 0.98634,3.10356 5.22743,1.48369 1.68173,-0.89275 1.44544,-3.61812 3.04812,-4.66917 1.30922,-0.52851 0.27571,-2.50117 0.0224,-3.99288 z"
           id="path45278"
           sodipodi:nodetypes="ccccccc"
           inkscape:export-filename="/home/jonasjf/Documentos/hangmam/src/img/hang5.png"
           inkscape:export-xdpi="96"
           inkscape:export-ydpi="96" />
        <path
           id="path45280"
           style="fill:#1a1a1a;stroke:#1a1a1a;stroke-width:0.873712;stroke-linecap:round"
           d="m 122.97445,102.66203 4.81657,0.32409 c 0.93352,0.0628 0.71028,1.11639 0.53254,2.03498 -1.6069,8.30478 -1.07964,17.60184 -1.80642,26.84652 -0.0733,0.93275 -0.13042,1.47117 -1.06454,1.41821 l -4.64241,-0.26322 c -0.93414,-0.053 -1.50342,-1.00887 -1.4406,-1.94239 1.02076,-9.72204 1.13966,-19.48333 1.38776,-29.2452 0.0238,-0.93534 1.28357,0.7642 2.2171,0.82701 z"
           sodipodi:nodetypes="ssssssccs"
           inkscape:export-filename="/home/jonasjf/Documentos/hangmam/src/img/hang5.png"
           inkscape:export-xdpi="96"
           inkscape:export-ydpi="96" />
      </g>
    </g>
  </g>
</svg>
